<svg version="1.1" xmlns="http://www.w3.org/2000/svg" xmlns:xlink="http://www.w3.org/1999/xlink" x="0px" y="0px"
	 viewBox="0 0 2160 2160" style="enable-background:new 0 0 2160 2160;" xml:space="preserve">
<style type="text/css">
	.st0{fill:#F3FDFF;}
	.st1{fill:#02111E;}
	.st2{fill:url(#SVGID_1_);}
	.st3{fill:url(#SVGID_2_);}
</style>
<g id="Capa_5">
	<rect class="st0" width="2160" height="2160"/>
</g>
<g id="Capa_4">
	<path class="st1" d="M1452.57,596.41l-80.07,84.32c0.22,0.2,0.45,0.4,0.67,0.61c78.93,72.29,128.44,176.19,128.5,291.64
		c0.11,217.76-177.11,395.45-394.87,395.88c-218.88,0.43-396.46-176.88-396.46-395.67c0-188.08,131.23-345.5,307.12-385.72v354.96
		v117.44h116.51h89.48V942.43h-89.48V578.51V468h-41.14c-146.71,0-286.49,64.43-380.17,177.34
		c-73.63,88.73-117.9,202.73-117.9,326.92c0,282.67,230.9,512.5,513.57,511.24c281.29-1.25,508.92-229.66,508.92-511.24
		C1617.25,823.63,1553.83,689.82,1452.57,596.41z"/>
</g>
<g id="Capa_3">
	<linearGradient id="SVGID_1_" gradientUnits="userSpaceOnUse" x1="557.5" y1="975.75" x2="1654.5" y2="975.75">
		<stop  offset="0.0669" style="stop-color:#0E78E0"/>
		<stop  offset="0.271" style="stop-color:#1373DF"/>
		<stop  offset="0.525" style="stop-color:#2366DD"/>
		<stop  offset="0.8041" style="stop-color:#3C51D9"/>
		<stop  offset="1" style="stop-color:#523ED5"/>
	</linearGradient>
	<path class="st2" d="M1477.82,568.77l-85.9,90.46c0.24,0.21,0.48,0.43,0.72,0.65c84.68,77.56,137.8,189.02,137.86,312.89
		c0.12,233.62-190.02,424.26-423.64,424.73C872.02,1397.96,681.5,1207.73,681.5,973c0-201.78,140.8-370.68,329.5-413.82V940v126h125
		h96V940h-96V549.56V431h-44.14c-157.4,0-307.36,69.13-407.87,190.26C605,716.46,557.5,838.77,557.5,972
		c0,303.26,247.73,549.84,550.99,548.5c301.78-1.34,546.01-246.4,546.01-548.49C1654.5,812.54,1586.46,668.98,1477.82,568.77z"/>
</g>
<g id="Capa_2">
	<linearGradient id="SVGID_2_" gradientUnits="userSpaceOnUse" x1="804" y1="1067.75" x2="1407.5" y2="1067.75">
		<stop  offset="0" style="stop-color:#20E8CE"/>
		<stop  offset="0.0349" style="stop-color:#1FE5CE"/>
		<stop  offset="0.387" style="stop-color:#15CED1"/>
		<stop  offset="0.7169" style="stop-color:#0FC0D2"/>
		<stop  offset="1" style="stop-color:#0DBBD3"/>
	</linearGradient>
	<path class="st3" d="M1289.5,1034.5c0,0-19,131-178,131c-76.68,0-119.87-30.46-144.03-62.01c-19.7-25.71-29.92-57.44-29.85-89.83
		L938,839H804l1.25,156.41c0.47,59.51,17.09,117.93,48.93,168.22c41.87,66.12,118.51,132.88,257.33,132.88c275,0,296-262,296-262
		H1289.5z"/>
</g>
</svg>